# xmcd
#
# Track frame offsets: 
#        150
#        11417
#        25234
#        40913
#        54576
#        67681
#        81178
#        98608
#        112429
#        131976
#        145940
#        159168
#        173881
#        188250
#        201487
#
# Disc length: 2857 seconds
#
# Revision: 2
# Processed by: cddbd v1.5.2PL0 Copyright (c) Steve Scherf et al.
# Submitted via: ExactAudioCopy v0.95b4
#
DISCID=c60b270f
DTITLE=John Lee Hooker - Quadromania: Guitar Lovin' Man. CD1
DYEAR=1900
DGENRE=Blues
TTITLE0=Please Don't Go
TTITLE1=I Don't Want Your Money
TTITLE2=Hey Baby
TTITLE3=Bluebird
TTITLE4=Walkin' the Boogie
TTITLE5=Love Blues
TTITLE6=Lonely Boy Boogie
TTITLE7=Apologize
TTITLE8=The Journey
TTITLE9=Worried Life Blues
TTITLE10=Down at the Landing
TTITLE11=You Have Two Hearts
TTITLE12=Blues for Big Town
TTITLE13=Women and Money
TTITLE14=Rock House Boogie
EXTD=
EXTT0=
EXTT1=
EXTT2=
EXTT3=
EXTT4=
EXTT5=
EXTT6=
EXTT7=
EXTT8=
EXTT9=
EXTT10=
EXTT11=
EXTT12=
EXTT13=
EXTT14=
PLAYORDER=
